<?xml version="1.0" standalone="no"?>
<!DOCTYPE svg PUBLIC "-//W3C//DTD SVG 20010904//EN"
 "http://www.w3.org/TR/2001/REC-SVG-20010904/DTD/svg10.dtd">
<svg version="1.0" xmlns="http://www.w3.org/2000/svg"
 width="504.000000pt" height="402.000000pt" viewBox="0 0 504.000000 402.000000"
 preserveAspectRatio="xMidYMid meet">
<metadata>
Created by potrace 1.15, written by Peter Selinger 2001-2017
</metadata>
<g transform="translate(0.000000,402.000000) scale(0.100000,-0.100000)"
fill="#000000" stroke="none">
<path d="M2355 3770 c-206 -19 -405 -74 -602 -170 -787 -379 -1170 -1296 -889
-2133 89 -266 222 -476 431 -683 474 -467 1156 -622 1793 -409 658 220 1127
834 1170 1528 28 450 -94 849 -368 1207 -266 346 -688 591 -1120 649 -117 15
-305 20 -415 11z m135 -310 l0 -240 -266 0 c-252 0 -266 1 -253 18 78 99 177
206 252 272 89 76 243 190 259 190 5 0 8 -108 8 -240z m160 184 c71 -47 98
-69 180 -149 105 -101 240 -253 240 -269 0 -3 -115 -6 -255 -6 l-255 0 0 241
c0 189 3 239 13 233 6 -4 41 -27 77 -50z m-330 43 c0 -2 -61 -54 -135 -116
-130 -108 -246 -227 -301 -311 l-27 -40 -250 0 -251 0 30 31 c44 47 153 133
238 187 42 27 73 52 68 57 -4 5 -2 5 4 2 6 -3 51 13 100 37 49 24 127 57 174
74 124 43 350 94 350 79z m580 -28 c275 -63 518 -188 705 -363 l80 -75 -251
-1 -250 0 -47 63 c-82 110 -209 234 -383 371 l-49 38 55 -7 c30 -3 93 -15 140
-26z m-1112 -536 c-2 -5 -22 -44 -45 -89 -48 -93 -106 -255 -124 -343 l-12
-61 -319 0 -320 0 7 28 c22 87 153 315 243 420 l44 52 265 0 c146 0 263 -3
261 -7z m702 -243 l0 -250 -396 0 -396 0 7 47 c10 70 67 219 130 343 l57 110
299 0 299 0 0 -250z m684 195 c63 -98 125 -243 170 -392 l15 -53 -400 0 -399
0 0 250 0 250 290 0 289 0 35 -55z m640 10 c90 -110 235 -350 260 -432 l7 -23
-325 0 -326 0 -6 28 c-34 150 -72 259 -133 381 -23 44 -41 83 -41 86 0 3 119
5 264 5 l264 0 36 -45z m325 -632 c41 -177 46 -227 46 -428 0 -202 -5 -247
-47 -432 l-21 -93 -1598 0 -1598 0 -12 43 c-54 200 -77 430 -60 614 13 137 32
245 56 330 l16 53 1598 0 1599 0 21 -87z m-2515 -1105 c24 -109 67 -228 121
-333 l44 -85 -264 0 c-296 0 -265 -8 -338 88 -87 114 -192 304 -212 385 l-7
27 319 0 318 0 19 -82z m866 -168 l0 -250 -302 2 -301 3 -58 115 c-60 119
-129 308 -129 354 l0 26 395 0 395 0 0 -250z m860 232 c0 -61 -117 -346 -180
-436 l-31 -46 -289 0 -290 0 0 250 0 250 395 0 c376 0 395 -1 395 -18z m730 6
c-1 -42 -150 -298 -237 -409 l-63 -79 -265 0 c-146 0 -265 2 -265 4 0 2 22 48
49 102 57 117 92 220 125 367 l6 27 325 0 c254 0 325 -3 325 -12z m-2185 -635
c53 -75 250 -272 347 -348 95 -74 85 -78 -88 -40 -271 61 -488 169 -701 350
-51 43 -93 82 -93 87 0 4 111 8 248 8 l247 0 40 -57z m595 -178 c0 -167 -3
-235 -11 -235 -20 0 -126 69 -201 130 -39 32 -77 56 -82 53 -6 -3 -8 -3 -4 2
4 4 -25 42 -65 84 -84 88 -167 185 -167 195 0 3 119 6 265 6 l265 0 0 -235z
m545 176 c-121 -154 -335 -349 -427 -389 l-48 -21 0 235 0 234 261 0 260 0
-46 -59z m619 28 c-41 -44 -175 -147 -264 -204 -149 -96 -372 -184 -552 -220
-132 -25 -136 -19 -38 55 118 90 243 212 320 314 l65 86 249 0 250 0 -30 -31z"/>
<path d="M1267 2389 c-106 -25 -167 -99 -167 -205 0 -61 24 -109 72 -142 173
-119 219 -196 168 -279 -35 -58 -105 -77 -195 -52 -42 12 -105 67 -105 93 0
34 -17 14 -27 -31 -13 -57 -8 -65 55 -90 34 -13 74 -18 143 -18 86 0 101 3
153 30 79 41 118 95 124 174 3 40 -1 67 -11 88 -22 42 -82 99 -136 130 -65 37
-110 82 -121 121 -20 76 19 136 97 148 70 10 112 -4 148 -52 l32 -41 11 44
c17 63 15 70 -19 82 -37 13 -167 13 -222 0z"/>
<path d="M1617 2393 c-4 -3 -2 -12 3 -18 17 -21 36 -144 66 -433 l29 -273 28
3 c26 3 40 23 148 218 65 118 119 218 119 222 0 4 4 8 8 8 4 0 16 -82 26 -182
28 -293 23 -270 65 -266 34 3 38 7 86 98 145 274 209 396 260 498 31 61 61
112 66 112 5 0 9 5 9 10 0 6 -28 10 -64 10 l-65 0 6 -32 c4 -27 -9 -63 -67
-183 -81 -170 -140 -279 -147 -272 -2 3 -15 108 -26 234 l-22 228 -30 3 c-30
3 -32 0 -153 -238 -68 -132 -127 -240 -132 -240 -10 0 -16 40 -30 200 -14 164
-13 242 5 266 8 10 15 22 15 27 0 9 -194 10 -203 0z"/>
<path d="M2645 2343 c-1 -79 -154 -620 -186 -660 -9 -11 6 -13 87 -13 l99 0 2
63 c1 42 22 134 67 290 64 223 101 324 133 359 15 17 11 18 -93 18 l-109 0 0
-57z"/>
<path d="M3044 2342 c-1 -38 -23 -135 -64 -278 -76 -267 -97 -331 -122 -366
l-19 -28 99 0 c94 0 100 1 95 19 -5 21 64 310 78 325 13 14 157 -9 180 -29 15
-14 20 -15 24 -4 17 47 35 102 35 107 0 3 -9 -3 -21 -14 -18 -16 -35 -19 -112
-17 -49 2 -92 4 -93 6 -7 6 58 232 72 255 13 19 23 22 84 22 86 0 115 -11 140
-52 l19 -32 11 30 c6 16 15 48 19 72 l8 42 -216 0 -216 0 -1 -58z"/>
<path d="M3512 2355 c-19 -71 -17 -83 11 -57 31 29 70 42 127 42 l48 0 -60
-202 c-32 -112 -73 -252 -90 -313 -17 -60 -38 -120 -46 -132 l-14 -23 89 0 89
0 13 73 c7 39 47 189 90 332 l77 260 46 3 c50 3 105 -18 115 -44 10 -26 22
-14 38 38 8 28 15 55 15 60 0 4 -121 8 -268 8 l-268 0 -12 -45z"/>
</g>
</svg>
